<svg xmlns="http://www.w3.org/2000/svg" width="208" height="160" viewBox="0 0 208 160">
  <defs>
    <style>
      .cls-1 {
        fill: #fff;
      }
    </style>
  </defs>
  <g id="Group_3016" data-name="Group 3016" transform="translate(-1665.5 -855.5)">
    <path id="Line_415" data-name="Line 415" class="cls-1" d="M209,4h-1.1a4,4,0,0,1-4-4,4,4,0,0,1,4-4H209a4,4,0,0,1,4,4A4,4,0,0,1,209,4ZM186.9,4h-1.1a4,4,0,0,1-4-4,4,4,0,0,1,4-4h1.1a4,4,0,0,1,4,4A4,4,0,0,1,186.9,4ZM164.8,4h-1.1a4,4,0,0,1-4-4,4,4,0,0,1,4-4h1.1a4,4,0,0,1,4,4A4,4,0,0,1,164.8,4ZM142.7,4h-1.1a4,4,0,0,1-4-4,4,4,0,0,1,4-4h1.1a4,4,0,0,1,4,4A4,4,0,0,1,142.7,4ZM120.6,4h-1.1a4,4,0,0,1-4-4,4,4,0,0,1,4-4h1.1a4,4,0,0,1,4,4A4,4,0,0,1,120.6,4ZM98.5,4H97.4a4,4,0,0,1-4-4,4,4,0,0,1,4-4h1.1a4,4,0,0,1,4,4A4,4,0,0,1,98.5,4ZM76.4,4H75.3a4,4,0,0,1-4-4,4,4,0,0,1,4-4h1.1a4,4,0,0,1,4,4A4,4,0,0,1,76.4,4ZM54.3,4H53.2a4,4,0,0,1-4-4,4,4,0,0,1,4-4h1.1a4,4,0,0,1,4,4A4,4,0,0,1,54.3,4ZM32.2,4H31.1a4,4,0,0,1-4-4,4,4,0,0,1,4-4h1.1a4,4,0,0,1,4,4A4,4,0,0,1,32.2,4ZM10.1,4H9A4,4,0,0,1,5,0,4,4,0,0,1,9-4h1.1a4,4,0,0,1,4,4A4,4,0,0,1,10.1,4Z" transform="translate(1660.5 859.5)"/>
    <path id="Line_418" data-name="Line 418" class="cls-1" d="M209,4h-1.1a4,4,0,0,1-4-4,4,4,0,0,1,4-4H209a4,4,0,0,1,4,4A4,4,0,0,1,209,4ZM186.9,4h-1.1a4,4,0,0,1-4-4,4,4,0,0,1,4-4h1.1a4,4,0,0,1,4,4A4,4,0,0,1,186.9,4ZM164.8,4h-1.1a4,4,0,0,1-4-4,4,4,0,0,1,4-4h1.1a4,4,0,0,1,4,4A4,4,0,0,1,164.8,4ZM142.7,4h-1.1a4,4,0,0,1-4-4,4,4,0,0,1,4-4h1.1a4,4,0,0,1,4,4A4,4,0,0,1,142.7,4ZM120.6,4h-1.1a4,4,0,0,1-4-4,4,4,0,0,1,4-4h1.1a4,4,0,0,1,4,4A4,4,0,0,1,120.6,4ZM98.5,4H97.4a4,4,0,0,1-4-4,4,4,0,0,1,4-4h1.1a4,4,0,0,1,4,4A4,4,0,0,1,98.5,4ZM76.4,4H75.3a4,4,0,0,1-4-4,4,4,0,0,1,4-4h1.1a4,4,0,0,1,4,4A4,4,0,0,1,76.4,4ZM54.3,4H53.2a4,4,0,0,1-4-4,4,4,0,0,1,4-4h1.1a4,4,0,0,1,4,4A4,4,0,0,1,54.3,4ZM32.2,4H31.1a4,4,0,0,1-4-4,4,4,0,0,1,4-4h1.1a4,4,0,0,1,4,4A4,4,0,0,1,32.2,4ZM10.1,4H9A4,4,0,0,1,5,0,4,4,0,0,1,9-4h1.1a4,4,0,0,1,4,4A4,4,0,0,1,10.1,4Z" transform="translate(1660.5 916.5)"/>
    <path id="Line_421" data-name="Line 421" class="cls-1" d="M209,4h-1.1a4,4,0,0,1-4-4,4,4,0,0,1,4-4H209a4,4,0,0,1,4,4A4,4,0,0,1,209,4ZM186.9,4h-1.1a4,4,0,0,1-4-4,4,4,0,0,1,4-4h1.1a4,4,0,0,1,4,4A4,4,0,0,1,186.9,4ZM164.8,4h-1.1a4,4,0,0,1-4-4,4,4,0,0,1,4-4h1.1a4,4,0,0,1,4,4A4,4,0,0,1,164.8,4ZM142.7,4h-1.1a4,4,0,0,1-4-4,4,4,0,0,1,4-4h1.1a4,4,0,0,1,4,4A4,4,0,0,1,142.7,4ZM120.6,4h-1.1a4,4,0,0,1-4-4,4,4,0,0,1,4-4h1.1a4,4,0,0,1,4,4A4,4,0,0,1,120.6,4ZM98.5,4H97.4a4,4,0,0,1-4-4,4,4,0,0,1,4-4h1.1a4,4,0,0,1,4,4A4,4,0,0,1,98.5,4ZM76.4,4H75.3a4,4,0,0,1-4-4,4,4,0,0,1,4-4h1.1a4,4,0,0,1,4,4A4,4,0,0,1,76.4,4ZM54.3,4H53.2a4,4,0,0,1-4-4,4,4,0,0,1,4-4h1.1a4,4,0,0,1,4,4A4,4,0,0,1,54.3,4ZM32.2,4H31.1a4,4,0,0,1-4-4,4,4,0,0,1,4-4h1.1a4,4,0,0,1,4,4A4,4,0,0,1,32.2,4ZM10.1,4H9A4,4,0,0,1,5,0,4,4,0,0,1,9-4h1.1a4,4,0,0,1,4,4A4,4,0,0,1,10.1,4Z" transform="translate(1660.5 973.5)"/>
    <path id="Line_416" data-name="Line 416" class="cls-1" d="M209,4h-1.1a4,4,0,0,1-4-4,4,4,0,0,1,4-4H209a4,4,0,0,1,4,4A4,4,0,0,1,209,4ZM186.9,4h-1.1a4,4,0,0,1-4-4,4,4,0,0,1,4-4h1.1a4,4,0,0,1,4,4A4,4,0,0,1,186.9,4ZM164.8,4h-1.1a4,4,0,0,1-4-4,4,4,0,0,1,4-4h1.1a4,4,0,0,1,4,4A4,4,0,0,1,164.8,4ZM142.7,4h-1.1a4,4,0,0,1-4-4,4,4,0,0,1,4-4h1.1a4,4,0,0,1,4,4A4,4,0,0,1,142.7,4ZM120.6,4h-1.1a4,4,0,0,1-4-4,4,4,0,0,1,4-4h1.1a4,4,0,0,1,4,4A4,4,0,0,1,120.6,4ZM98.5,4H97.4a4,4,0,0,1-4-4,4,4,0,0,1,4-4h1.1a4,4,0,0,1,4,4A4,4,0,0,1,98.5,4ZM76.4,4H75.3a4,4,0,0,1-4-4,4,4,0,0,1,4-4h1.1a4,4,0,0,1,4,4A4,4,0,0,1,76.4,4ZM54.3,4H53.2a4,4,0,0,1-4-4,4,4,0,0,1,4-4h1.1a4,4,0,0,1,4,4A4,4,0,0,1,54.3,4ZM32.2,4H31.1a4,4,0,0,1-4-4,4,4,0,0,1,4-4h1.1a4,4,0,0,1,4,4A4,4,0,0,1,32.2,4ZM10.1,4H9A4,4,0,0,1,5,0,4,4,0,0,1,9-4h1.1a4,4,0,0,1,4,4A4,4,0,0,1,10.1,4Z" transform="translate(1660.5 878.5)"/>
    <path id="Line_419" data-name="Line 419" class="cls-1" d="M209,4h-1.1a4,4,0,0,1-4-4,4,4,0,0,1,4-4H209a4,4,0,0,1,4,4A4,4,0,0,1,209,4ZM186.9,4h-1.1a4,4,0,0,1-4-4,4,4,0,0,1,4-4h1.1a4,4,0,0,1,4,4A4,4,0,0,1,186.9,4ZM164.8,4h-1.1a4,4,0,0,1-4-4,4,4,0,0,1,4-4h1.1a4,4,0,0,1,4,4A4,4,0,0,1,164.8,4ZM142.7,4h-1.1a4,4,0,0,1-4-4,4,4,0,0,1,4-4h1.1a4,4,0,0,1,4,4A4,4,0,0,1,142.7,4ZM120.6,4h-1.1a4,4,0,0,1-4-4,4,4,0,0,1,4-4h1.1a4,4,0,0,1,4,4A4,4,0,0,1,120.6,4ZM98.5,4H97.4a4,4,0,0,1-4-4,4,4,0,0,1,4-4h1.1a4,4,0,0,1,4,4A4,4,0,0,1,98.5,4ZM76.4,4H75.3a4,4,0,0,1-4-4,4,4,0,0,1,4-4h1.1a4,4,0,0,1,4,4A4,4,0,0,1,76.4,4ZM54.3,4H53.2a4,4,0,0,1-4-4,4,4,0,0,1,4-4h1.1a4,4,0,0,1,4,4A4,4,0,0,1,54.3,4ZM32.2,4H31.1a4,4,0,0,1-4-4,4,4,0,0,1,4-4h1.1a4,4,0,0,1,4,4A4,4,0,0,1,32.2,4ZM10.1,4H9A4,4,0,0,1,5,0,4,4,0,0,1,9-4h1.1a4,4,0,0,1,4,4A4,4,0,0,1,10.1,4Z" transform="translate(1660.5 935.5)"/>
    <path id="Line_422" data-name="Line 422" class="cls-1" d="M209,4h-1.1a4,4,0,0,1-4-4,4,4,0,0,1,4-4H209a4,4,0,0,1,4,4A4,4,0,0,1,209,4ZM186.9,4h-1.1a4,4,0,0,1-4-4,4,4,0,0,1,4-4h1.1a4,4,0,0,1,4,4A4,4,0,0,1,186.9,4ZM164.8,4h-1.1a4,4,0,0,1-4-4,4,4,0,0,1,4-4h1.1a4,4,0,0,1,4,4A4,4,0,0,1,164.8,4ZM142.7,4h-1.1a4,4,0,0,1-4-4,4,4,0,0,1,4-4h1.1a4,4,0,0,1,4,4A4,4,0,0,1,142.7,4ZM120.6,4h-1.1a4,4,0,0,1-4-4,4,4,0,0,1,4-4h1.1a4,4,0,0,1,4,4A4,4,0,0,1,120.6,4ZM98.5,4H97.4a4,4,0,0,1-4-4,4,4,0,0,1,4-4h1.1a4,4,0,0,1,4,4A4,4,0,0,1,98.5,4ZM76.4,4H75.3a4,4,0,0,1-4-4,4,4,0,0,1,4-4h1.1a4,4,0,0,1,4,4A4,4,0,0,1,76.4,4ZM54.3,4H53.2a4,4,0,0,1-4-4,4,4,0,0,1,4-4h1.1a4,4,0,0,1,4,4A4,4,0,0,1,54.3,4ZM32.2,4H31.1a4,4,0,0,1-4-4,4,4,0,0,1,4-4h1.1a4,4,0,0,1,4,4A4,4,0,0,1,32.2,4ZM10.1,4H9A4,4,0,0,1,5,0,4,4,0,0,1,9-4h1.1a4,4,0,0,1,4,4A4,4,0,0,1,10.1,4Z" transform="translate(1660.5 992.5)"/>
    <path id="Line_417" data-name="Line 417" class="cls-1" d="M209,4h-1.1a4,4,0,0,1-4-4,4,4,0,0,1,4-4H209a4,4,0,0,1,4,4A4,4,0,0,1,209,4ZM186.9,4h-1.1a4,4,0,0,1-4-4,4,4,0,0,1,4-4h1.1a4,4,0,0,1,4,4A4,4,0,0,1,186.9,4ZM164.8,4h-1.1a4,4,0,0,1-4-4,4,4,0,0,1,4-4h1.1a4,4,0,0,1,4,4A4,4,0,0,1,164.8,4ZM142.7,4h-1.1a4,4,0,0,1-4-4,4,4,0,0,1,4-4h1.1a4,4,0,0,1,4,4A4,4,0,0,1,142.7,4ZM120.6,4h-1.1a4,4,0,0,1-4-4,4,4,0,0,1,4-4h1.1a4,4,0,0,1,4,4A4,4,0,0,1,120.6,4ZM98.5,4H97.4a4,4,0,0,1-4-4,4,4,0,0,1,4-4h1.1a4,4,0,0,1,4,4A4,4,0,0,1,98.5,4ZM76.4,4H75.3a4,4,0,0,1-4-4,4,4,0,0,1,4-4h1.1a4,4,0,0,1,4,4A4,4,0,0,1,76.4,4ZM54.3,4H53.2a4,4,0,0,1-4-4,4,4,0,0,1,4-4h1.1a4,4,0,0,1,4,4A4,4,0,0,1,54.3,4ZM32.2,4H31.1a4,4,0,0,1-4-4,4,4,0,0,1,4-4h1.1a4,4,0,0,1,4,4A4,4,0,0,1,32.2,4ZM10.1,4H9A4,4,0,0,1,5,0,4,4,0,0,1,9-4h1.1a4,4,0,0,1,4,4A4,4,0,0,1,10.1,4Z" transform="translate(1660.5 897.5)"/>
    <path id="Line_420" data-name="Line 420" class="cls-1" d="M209,4h-1.1a4,4,0,0,1-4-4,4,4,0,0,1,4-4H209a4,4,0,0,1,4,4A4,4,0,0,1,209,4ZM186.9,4h-1.1a4,4,0,0,1-4-4,4,4,0,0,1,4-4h1.1a4,4,0,0,1,4,4A4,4,0,0,1,186.9,4ZM164.8,4h-1.1a4,4,0,0,1-4-4,4,4,0,0,1,4-4h1.1a4,4,0,0,1,4,4A4,4,0,0,1,164.8,4ZM142.7,4h-1.1a4,4,0,0,1-4-4,4,4,0,0,1,4-4h1.1a4,4,0,0,1,4,4A4,4,0,0,1,142.7,4ZM120.6,4h-1.1a4,4,0,0,1-4-4,4,4,0,0,1,4-4h1.1a4,4,0,0,1,4,4A4,4,0,0,1,120.6,4ZM98.5,4H97.4a4,4,0,0,1-4-4,4,4,0,0,1,4-4h1.1a4,4,0,0,1,4,4A4,4,0,0,1,98.5,4ZM76.4,4H75.3a4,4,0,0,1-4-4,4,4,0,0,1,4-4h1.1a4,4,0,0,1,4,4A4,4,0,0,1,76.4,4ZM54.3,4H53.2a4,4,0,0,1-4-4,4,4,0,0,1,4-4h1.1a4,4,0,0,1,4,4A4,4,0,0,1,54.3,4ZM32.2,4H31.1a4,4,0,0,1-4-4,4,4,0,0,1,4-4h1.1a4,4,0,0,1,4,4A4,4,0,0,1,32.2,4ZM10.1,4H9A4,4,0,0,1,5,0,4,4,0,0,1,9-4h1.1a4,4,0,0,1,4,4A4,4,0,0,1,10.1,4Z" transform="translate(1660.5 954.5)"/>
    <path id="Line_423" data-name="Line 423" class="cls-1" d="M209,4h-1.1a4,4,0,0,1-4-4,4,4,0,0,1,4-4H209a4,4,0,0,1,4,4A4,4,0,0,1,209,4ZM186.9,4h-1.1a4,4,0,0,1-4-4,4,4,0,0,1,4-4h1.1a4,4,0,0,1,4,4A4,4,0,0,1,186.9,4ZM164.8,4h-1.1a4,4,0,0,1-4-4,4,4,0,0,1,4-4h1.1a4,4,0,0,1,4,4A4,4,0,0,1,164.8,4ZM142.7,4h-1.1a4,4,0,0,1-4-4,4,4,0,0,1,4-4h1.1a4,4,0,0,1,4,4A4,4,0,0,1,142.7,4ZM120.6,4h-1.1a4,4,0,0,1-4-4,4,4,0,0,1,4-4h1.1a4,4,0,0,1,4,4A4,4,0,0,1,120.6,4ZM98.5,4H97.4a4,4,0,0,1-4-4,4,4,0,0,1,4-4h1.1a4,4,0,0,1,4,4A4,4,0,0,1,98.5,4ZM76.4,4H75.3a4,4,0,0,1-4-4,4,4,0,0,1,4-4h1.1a4,4,0,0,1,4,4A4,4,0,0,1,76.4,4ZM54.3,4H53.2a4,4,0,0,1-4-4,4,4,0,0,1,4-4h1.1a4,4,0,0,1,4,4A4,4,0,0,1,54.3,4ZM32.2,4H31.1a4,4,0,0,1-4-4,4,4,0,0,1,4-4h1.1a4,4,0,0,1,4,4A4,4,0,0,1,32.2,4ZM10.1,4H9A4,4,0,0,1,5,0,4,4,0,0,1,9-4h1.1a4,4,0,0,1,4,4A4,4,0,0,1,10.1,4Z" transform="translate(1660.5 1011.5)"/>
  </g>
</svg>
