<svg xmlns="http://www.w3.org/2000/svg" xmlns:xlink="http://www.w3.org/1999/xlink" width="109.006" height="102.198" viewBox="0 0 109.006 102.198">
  <defs>
    <style>
      .cls-1 {
        opacity: 0.73;
      }

      .cls-2 {
        fill: #e8edf6;
      }

      .cls-3 {
        fill: #c6cfde;
      }

      .cls-4 {
        fill: #95a5bd;
      }

      .cls-5 {
        fill: #8f98ac;
      }

      .cls-6 {
        fill: #bfc8d7;
      }

      .cls-7 {
        filter: url(#Rectangle_1998-3);
      }

      .cls-8 {
        filter: url(#Rectangle_1998-2);
      }

      .cls-9 {
        filter: url(#Rectangle_1998);
      }
    </style>
    <filter id="Rectangle_1998" x="34.617" y="11.982" width="74.389" height="82.676" filterUnits="userSpaceOnUse">
      <feOffset dy="3" input="SourceAlpha"/>
      <feGaussianBlur stdDeviation="1.5" result="blur"/>
      <feFlood flood-opacity="0.161"/>
      <feComposite operator="in" in2="blur"/>
      <feComposite in="SourceGraphic"/>
    </filter>
    <filter id="Rectangle_1998-2" x="0" y="22.325" width="72.007" height="79.873" filterUnits="userSpaceOnUse">
      <feOffset dy="2" input="SourceAlpha"/>
      <feGaussianBlur stdDeviation="1" result="blur-2"/>
      <feFlood flood-opacity="0.161"/>
      <feComposite operator="in" in2="blur-2"/>
      <feComposite in="SourceGraphic"/>
    </filter>
    <filter id="Rectangle_1998-3" x="19.599" y="10.5" width="58" height="76" filterUnits="userSpaceOnUse">
      <feOffset dy="3" input="SourceAlpha"/>
      <feGaussianBlur stdDeviation="2.5" result="blur-3"/>
      <feFlood flood-opacity="0.161"/>
      <feComposite operator="in" in2="blur-3"/>
      <feComposite in="SourceGraphic"/>
    </filter>
  </defs>
  <g id="Group_3049" data-name="Group 3049" transform="translate(-855.865 -590)">
    <g id="Group_3021" data-name="Group 3021" class="cls-1" transform="translate(728.111 -208.577) rotate(26)">
      <g class="cls-9" transform="matrix(0.9, -0.44, 0.44, 0.9, 464.9, 661.75)">
        <rect id="Rectangle_1998-4" data-name="Rectangle 1998" class="cls-2" width="43" height="61" rx="5" transform="translate(65.86 13.48) rotate(26)"/>
      </g>
      <circle id="Ellipse_27" data-name="Ellipse 27" class="cls-3" cx="11" cy="11" r="11" transform="translate(541 658)"/>
      <path id="Intersection_4" data-name="Intersection 4" class="cls-4" d="M-8151.89,12078.664A10.173,10.173,0,0,1-8144,12075a10.176,10.176,0,0,1,7.892,3.663A10.973,10.973,0,0,1-8144,12082,10.97,10.97,0,0,1-8151.89,12078.664Z" transform="translate(8696 -11402)"/>
      <circle id="Ellipse_28" data-name="Ellipse 28" class="cls-4" cx="4" cy="4" r="4" transform="translate(548 663)"/>
      <path id="Line_533" data-name="Line 533" class="cls-4" d="M14,2H0A2,2,0,0,1-2,0,2,2,0,0,1,0-2H14a2,2,0,0,1,2,2A2,2,0,0,1,14,2Z" transform="translate(544.5 687.5)"/>
      <path id="Line_534" data-name="Line 534" class="cls-4" d="M23,2H0A2,2,0,0,1-2,0,2,2,0,0,1,0-2H23a2,2,0,0,1,2,2A2,2,0,0,1,23,2Z" transform="translate(540.5 696.5)"/>
      <rect id="Rectangle_1999" data-name="Rectangle 1999" class="cls-5" width="18" height="8" rx="2" transform="translate(543 646)"/>
      <rect id="Rectangle_2000" data-name="Rectangle 2000" class="cls-6" width="12" height="19" transform="translate(546 630)"/>
    </g>
    <g id="Group_3022" data-name="Group 3022" class="cls-1" transform="translate(93.807 298.763) rotate(-27)">
      <g class="cls-8" transform="matrix(0.89, 0.45, -0.45, 0.89, 546.78, 605.46)">
        <rect id="Rectangle_1998-5" data-name="Rectangle 1998" class="cls-2" width="43" height="61" rx="5" transform="translate(3 42.85) rotate(-27)"/>
      </g>
      <circle id="Ellipse_27-2" data-name="Ellipse 27" class="cls-3" cx="11" cy="11" r="11" transform="translate(541 658)"/>
      <path id="Intersection_4-2" data-name="Intersection 4" class="cls-4" d="M-8151.89,12078.664A10.173,10.173,0,0,1-8144,12075a10.176,10.176,0,0,1,7.892,3.663A10.973,10.973,0,0,1-8144,12082,10.97,10.97,0,0,1-8151.89,12078.664Z" transform="translate(8696 -11402)"/>
      <circle id="Ellipse_28-2" data-name="Ellipse 28" class="cls-4" cx="4" cy="4" r="4" transform="translate(548 663)"/>
      <path id="Line_533-2" data-name="Line 533" class="cls-4" d="M14,2H0A2,2,0,0,1-2,0,2,2,0,0,1,0-2H14a2,2,0,0,1,2,2A2,2,0,0,1,14,2Z" transform="translate(544.5 687.5)"/>
      <path id="Line_534-2" data-name="Line 534" class="cls-4" d="M23,2H0A2,2,0,0,1-2,0,2,2,0,0,1,0-2H23a2,2,0,0,1,2,2A2,2,0,0,1,23,2Z" transform="translate(540.5 696.5)"/>
      <rect id="Rectangle_1999-2" data-name="Rectangle 1999" class="cls-5" width="18" height="8" rx="2" transform="translate(543 646)"/>
      <rect id="Rectangle_2000-2" data-name="Rectangle 2000" class="cls-6" width="12" height="19" transform="translate(546 630)"/>
    </g>
    <g id="Group_3023" data-name="Group 3023" transform="translate(352.963 -40)">
      <g class="cls-7" transform="matrix(1, 0, 0, 1, 502.9, 630)">
        <rect id="Rectangle_1998-6" data-name="Rectangle 1998" class="cls-2" width="43" height="61" rx="5" transform="translate(27.1 15)"/>
      </g>
      <circle id="Ellipse_27-3" data-name="Ellipse 27" class="cls-3" cx="11" cy="11" r="11" transform="translate(541 658)"/>
      <path id="Intersection_4-3" data-name="Intersection 4" class="cls-4" d="M-8151.89,12078.664A10.173,10.173,0,0,1-8144,12075a10.176,10.176,0,0,1,7.892,3.663A10.973,10.973,0,0,1-8144,12082,10.97,10.97,0,0,1-8151.89,12078.664Z" transform="translate(8696 -11402)"/>
      <circle id="Ellipse_28-3" data-name="Ellipse 28" class="cls-4" cx="4" cy="4" r="4" transform="translate(548 663)"/>
      <path id="Line_533-3" data-name="Line 533" class="cls-4" d="M14,2H0A2,2,0,0,1-2,0,2,2,0,0,1,0-2H14a2,2,0,0,1,2,2A2,2,0,0,1,14,2Z" transform="translate(544.5 687.5)"/>
      <path id="Line_534-3" data-name="Line 534" class="cls-4" d="M23,2H0A2,2,0,0,1-2,0,2,2,0,0,1,0-2H23a2,2,0,0,1,2,2A2,2,0,0,1,23,2Z" transform="translate(540.5 696.5)"/>
      <rect id="Rectangle_1999-3" data-name="Rectangle 1999" class="cls-5" width="18" height="8" rx="2" transform="translate(543 646)"/>
      <rect id="Rectangle_2000-3" data-name="Rectangle 2000" class="cls-6" width="12" height="19" transform="translate(546 630)"/>
    </g>
  </g>
</svg>
