<svg xmlns="http://www.w3.org/2000/svg" width="21.078" height="21.069" viewBox="0 0 21.078 21.069">
  <defs>
    <style>
      .cls-1 {
        fill: none;
      }

      .cls-2 {
        fill: #008d13;
      }
    </style>
  </defs>
  <g id="diversity_2_black_24dp" transform="translate(0.002)">
    <g id="Group_3028" data-name="Group 3028" transform="translate(0)">
      <rect id="Rectangle_2009" data-name="Rectangle 2009" class="cls-1" width="21.069" height="21.069"/>
    </g>
    <g id="Group_3030" data-name="Group 3030" transform="translate(-0.002 0.878)">
      <g id="Group_3029" data-name="Group 3029">
        <path id="Path_7980" data-name="Path 7980" class="cls-2" d="M9.477,14.08l1.247-1.247C8.327,10.7,6.756,9.261,6.756,7.891A1.593,1.593,0,0,1,8.38,6.267c.974,0,1.352.571,2.353,1.756h.816c.983-1.15,1.343-1.756,2.353-1.756a1.574,1.574,0,0,1,1.554,1.159,7.7,7.7,0,0,1,.878-.053,5.993,5.993,0,0,1,.9.07A3.316,3.316,0,0,0,13.91,4.512c-.105,0-.2.026-.307.035a2.634,2.634,0,1,0-4.916,0c-.105-.009-.2-.035-.307-.035A3.343,3.343,0,0,0,5,7.891C5,10.016,6.791,11.675,9.477,14.08Z" transform="translate(-0.609 -1)"/>
        <path id="Path_7981" data-name="Path 7981" class="cls-2" d="M21.175,15.448a2.759,2.759,0,0,0-.878-.307c.061-.088.132-.158.184-.246a3.344,3.344,0,0,0-1.238-4.618c-1.835-1.062-4.179-.342-7.594.79l.456,1.7c3.046-1,5.083-1.65,6.268-.966a1.6,1.6,0,0,1,.6,2.221c-.492.843-1.168.878-2.7,1.159l-.413.711c.509,1.422.852,2.045.342,2.915a1.6,1.6,0,0,1-2.221.6,1.688,1.688,0,0,1-.149-.114,7.019,7.019,0,0,1-.9,1.519,2.13,2.13,0,0,1,.176.123A3.344,3.344,0,0,0,17.725,19.7a2.712,2.712,0,0,0,.123-.281,2.469,2.469,0,0,0,.7.606,2.637,2.637,0,1,0,2.625-4.574Z" transform="translate(-1.421 -2.07)"/>
        <path id="Path_7982" data-name="Path 7982" class="cls-2" d="M10.815,13.535c-.65,3.143-1.115,5.223-2.3,5.908a1.587,1.587,0,0,1-2.221-.6c-.492-.843-.176-1.457.342-2.915l-.4-.711c-1.492-.272-2.195-.29-2.7-1.159a1.587,1.587,0,0,1,.6-2.221,1.269,1.269,0,0,1,.255-.1,5.9,5.9,0,0,1-.72-1.624,4.6,4.6,0,0,0-.421.2A3.344,3.344,0,0,0,2.01,14.94c.053.088.123.158.184.246a2.759,2.759,0,0,0-.878.307A2.635,2.635,0,0,0,3.95,20.058a2.469,2.469,0,0,0,.7-.606,2.713,2.713,0,0,0,.123.281,3.344,3.344,0,0,0,4.618,1.238c1.835-1.062,2.379-3.45,3.116-6.97Z" transform="translate(0.002 -2.114)"/>
      </g>
    </g>
  </g>
</svg>
